<svg id="Layer_1" data-name="Layer 1" xmlns="http://www.w3.org/2000/svg" viewBox="0 0 215 215"><defs><style>.cls-1{fill:#0093f5;}.cls-1,.cls-2,.cls-3{fill-rule:evenodd;}.cls-2{fill:#a1a4a0;}.cls-3{fill:#d2d7d4;}.cls-4{fill:#004777;}</style></defs><path class="cls-1" d="M116.8,0A107.5,107.5,0,1,1,9.3,107.5,107.51,107.51,0,0,1,116.8,0Z" transform="translate(-9.3)"/><path class="cls-2" d="M112.2,129.2c-1.6-2.3-4,.1-5.9,1.5l-13-12.9c1.4-1.9,3.8-4.3,1.5-5.9s-3.8,1.5-5.2,3.4l-16.4-7.9c.9-2.5,2.6-5.7-.1-6.6s-3.3,2.8-4.2,5.4L53,104.1C56.2,70.2,79.2,47.2,113.1,44l2.1,15.9c-2.7.9-6.3,1.4-5.4,4.2s4.1,1,6.6.1l7.9,16.4c-1.9,1.4-5,2.9-3.4,5.2s4.1-.2,5.9-1.5l12.9,13c-1.3,1.9-3.7,4.3-1.5,5.9s3.8-1.4,5.1-3.3l16.4,8c-.8,2.4-2.5,5.5.2,6.4s3.2-2.7,4.1-5.2l16.2,2.2c-3.2,33.9-26.2,56.9-60.1,60.1l-2.2-16.2c2.5-.8,6.1-1.4,5.2-4.1s-4-1-6.4-.2l-8-16.4c2.1-1.5,5.1-3,3.5-5.3Zm35.3-38.9c-2.3-1.6-3.7,1.4-5,3.2L130.6,81.6c1.8-1.3,4.7-2.7,3.1-5s-4,.1-5.7,1.3l-7.3-15.2c2.4-.8,5.9-1.4,5-4.1s-4-1-6.2-.2l-1.9-14.6c36.2,1.9,61,26.7,62.9,62.9l-14.9-2c.8-2.4,2.5-5.6-.2-6.5s-3.3,2.7-4.1,5.3l-15.2-7.4c1.3-1.8,3.7-4.2,1.4-5.8Zm-34.1,80.8a63.63,63.63,0,0,1-60.2-60.2l-.1-2.6,14.6,1.9c-.8,2.3-2.4,5.3.2,6.2s3.2-2.6,4.1-5l15.2,7.3c-1.2,1.7-3.6,4.1-1.3,5.7s3.7-1.4,5-3.1l11.9,11.9c-1.8,1.3-4.8,2.8-3.2,5s4-.1,5.8-1.4l7.4,15.2c-2.6.9-6.2,1.4-5.3,4.1s4.1,1,6.5.2l2,14.9-2.6-.1Z" transform="translate(-9.3)"/><path class="cls-3" d="M112.2,129.2c-1.6-2.3-4,.1-5.9,1.5l-13-12.9c1.4-1.9,3.8-4.3,1.5-5.9s-3.8,1.5-5.2,3.4l-16.4-7.9c.9-2.5,2.6-5.7-.1-6.6s-3.3,2.8-4.2,5.4L53,104.1C56.2,70.2,79.2,47.2,113.1,44l2.1,15.9c-2.7.9-6.3,1.4-5.4,4.2s4.1,1,6.6.1l7.9,16.4c-1.9,1.4-5,2.9-3.4,5.2s4.1-.2,5.9-1.5l12.9,13c-1.3,1.9-3.7,4.3-1.5,5.9s3.8-1.4,5.1-3.3l16.2,7.9v.4l-.1.6c-.6,1.7-1.4,3.5-.6,4.7-3.9,24.4-18.3,42.8-39.5,51.5l-1.3-9.8c2.5-.8,6.1-1.4,5.2-4.1s-4-1-6.4-.2l-8-16.4c2-1.5,5-3,3.4-5.3ZM120.6,44c22.8,9.8,37.5,31.1,39.1,58.7l-13.6-6.6c1.3-1.8,3.7-4.2,1.4-5.8s-3.7,1.4-5,3.2L130.6,81.6c1.8-1.3,4.7-2.7,3.1-5s-4,.1-5.7,1.3l-7.3-15.2c2.4-.8,5.9-1.4,5-4.1s-4-1-6.2-.2l-1.9-14.6c1,0,2,.1,3,.2Zm-5.3,122.4a76,76,0,0,1-13.1,3.2,63.76,63.76,0,0,1-49-58.6l-.1-2.6,14.6,1.9c-.8,2.3-2.4,5.3.2,6.2s3.2-2.6,4.1-5l15.2,7.3c-1.2,1.7-3.6,4.1-1.3,5.7s3.7-1.4,5-3.1l11.9,11.9c-1.8,1.3-4.8,2.8-3.2,5s4-.1,5.8-1.4l7.4,15.2c-2.6.9-6.2,1.4-5.3,4.1s4.1,1,6.5.2l1.3,10Z" transform="translate(-9.3)"/><path class="cls-4" d="M131.5,92.8a62.3,62.3,0,0,1-4.9-5.5l-1.1.8a4.51,4.51,0,0,1-5.3-7.3l1.1-.8a70.45,70.45,0,0,1-5.4-10.6c-.3-.7-.6-1.5-.9-2.2l-1.7.6a4.49,4.49,0,0,1-2.9-8.5l2.1-.7a68.1,68.1,0,0,1-1.6-11.9,61.35,61.35,0,0,0-55.3,55.4,68.1,68.1,0,0,1,11.9,1.6l.7-2.1a4.49,4.49,0,0,1,8.5,2.9l-.6,1.7a19.45,19.45,0,0,0,2.2.8A71.51,71.51,0,0,1,89,112.4l.8-1.1a4.51,4.51,0,0,1,7.3,5.3l-.8,1.1c1.9,1.5,3.7,3.2,5.5,4.9a60.38,60.38,0,0,1,4.8,5.3l1-.7a4.51,4.51,0,0,1,5.3,7.3l-1,.7a71.51,71.51,0,0,1,5.4,10.7c.3.7.6,1.5.9,2.2l1.5-.5a4.49,4.49,0,1,1,2.9,8.5l-1.8.6a70.29,70.29,0,0,1,1.7,12.2,61.33,61.33,0,0,0,55.4-55.4h0a71.66,71.66,0,0,1-12.2-1.7l-.6,1.8a4.49,4.49,0,0,1-8.5-2.9l.5-1.5c-.8-.3-1.5-.6-2.2-.9a71.51,71.51,0,0,1-10.7-5.4l-.7,1a4.51,4.51,0,1,1-7.3-5.3l.7-1q-2.85-2.4-5.4-4.8m-19.2,66.6-1.2.4a4.49,4.49,0,1,1-2.9-8.5l1.6-.5a13.36,13.36,0,0,0-.7-1.8,60.23,60.23,0,0,0-4.4-8.8l-.7.5a4.51,4.51,0,0,1-5.3-7.3l.7-.5c-1.2-1.4-2.5-2.8-3.8-4.1s-2.9-2.7-4.4-4l-.4.6a4.51,4.51,0,1,1-7.3-5.3l.4-.6a70.93,70.93,0,0,0-8.7-4.4c-.6-.2-1.2-.5-1.8-.7l-.5,1.4a4.49,4.49,0,0,1-8.5-2.9l.3-.9a70.13,70.13,0,0,0-9.2-1.2,61.4,61.4,0,0,0,58.1,58.1c-.3-3.2-.7-6.4-1.3-9.5ZM160,100.5l.5-1.6a4.49,4.49,0,1,1,8.5,2.9l-.4,1.2a49.36,49.36,0,0,0,9.4,1.2,61.4,61.4,0,0,0-58.1-58.1,70.13,70.13,0,0,0,1.2,9.2l.9-.3a4.49,4.49,0,1,1,2.9,8.5l-1.4.5a13.36,13.36,0,0,0,.7,1.8,70.28,70.28,0,0,0,4.3,8.7l.6-.4a4.51,4.51,0,0,1,5.3,7.3l-.6.4a54.79,54.79,0,0,0,4,4.4c1.3,1.3,2.7,2.6,4.1,3.8l.5-.7a4.51,4.51,0,1,1,7.3,5.3l-.5.7a55.61,55.61,0,0,0,8.8,4.4c.8.3,1.4.6,2,.8ZM46.3,106.7v-.4a2.2,2.2,0,0,1,.1-.8,70.41,70.41,0,0,1,68.9-68.4h1.5a70.43,70.43,0,1,1-70.4,70.4l-.1-.8Z" transform="translate(-9.3)"/></svg>